<?xml version="1.0" encoding="UTF-8"?>
<!DOCTYPE svg PUBLIC "-//W3C//DTD SVG 1.1//EN" "http://www.w3.org/Graphics/SVG/1.1/DTD/svg11.dtd">
<svg xmlns="http://www.w3.org/2000/svg" version="1.1" width="1024px" height="1024px" style="shape-rendering:geometricPrecision; text-rendering:geometricPrecision; image-rendering:optimizeQuality; fill-rule:evenodd; clip-rule:evenodd" xmlns:xlink="http://www.w3.org/1999/xlink">
<g><path style="opacity:1" fill="#f9f9f9" d="M -0.5,-0.5 C 340.833,-0.5 682.167,-0.5 1023.5,-0.5C 1023.5,340.833 1023.5,682.167 1023.5,1023.5C 682.167,1023.5 340.833,1023.5 -0.5,1023.5C -0.5,682.167 -0.5,340.833 -0.5,-0.5 Z"/></g>
<g><path style="opacity:1" fill="#beda8a" d="M 678.5,237.5 C 677.833,239.5 677.167,241.5 676.5,243.5C 676.192,241.076 676.526,238.743 677.5,236.5C 678.107,236.624 678.44,236.957 678.5,237.5 Z"/></g>
<g><path style="opacity:1" fill="#78aa19" d="M 678.5,237.5 C 679.289,242.702 680.789,247.702 683,252.5C 683.667,255.5 683.667,258.5 683,261.5C 680.224,263.14 678.224,262.473 677,259.5C 676.296,257.722 675.796,255.888 675.5,254C 676.286,250.542 676.62,247.042 676.5,243.5C 677.167,241.5 677.833,239.5 678.5,237.5 Z"/></g>
<g><path style="opacity:1" fill="#7bab1e" d="M 716.5,239.5 C 717.043,239.56 717.376,239.893 717.5,240.5C 713.908,247.206 711.075,254.206 709,261.5C 707.446,264.102 705.28,265.269 702.5,265C 701.146,261.791 701.313,258.624 703,255.5C 707.711,250.294 712.211,244.961 716.5,239.5 Z"/></g>
<g><path style="opacity:1" fill="#71a21c" d="M 639.5,248.5 C 639.897,247.475 640.563,247.308 641.5,248C 647.374,253.543 653.541,258.71 660,263.5C 662.382,267.063 661.382,268.729 657,268.5C 654.456,268.616 652.289,267.783 650.5,266C 647.184,259.85 643.517,254.016 639.5,248.5 Z"/></g>
<g><path style="opacity:1" fill="#6c9d07" d="M 562.5,301.5 C 562.586,300.504 562.252,299.671 561.5,299C 562.167,298.333 562.833,297.667 563.5,297C 561.866,296.506 560.199,296.34 558.5,296.5C 558.551,294.43 557.885,292.597 556.5,291C 558.141,289.354 557.807,288.354 555.5,288C 546.533,286.894 537.533,286.394 528.5,286.5C 528.611,285.883 528.944,285.383 529.5,285C 501.047,282.424 472.713,283.258 444.5,287.5C 441.146,287.931 438.313,286.931 436,284.5C 432.72,286.146 429.387,287.48 426,288.5C 422.558,288.608 419.725,287.442 417.5,285C 419.932,283.913 419.598,283.413 416.5,283.5C 453.568,272.447 491.568,266.78 530.5,266.5C 530.17,259.8 530.503,253.134 531.5,246.5C 532.167,246.167 532.833,245.833 533.5,245.5C 548.816,258.982 563.983,272.648 579,286.5C 579.63,288.903 578.797,290.737 576.5,292C 571.952,295.388 567.286,298.555 562.5,301.5 Z"/></g>
<g><path style="opacity:1" fill="#73a21f" d="M 739.5,262.5 C 740.376,262.369 741.043,262.702 741.5,263.5C 736.354,267.478 731.354,271.645 726.5,276C 722.798,278.267 719.465,277.934 716.5,275C 717.101,273.395 718.101,272.062 719.5,271C 726.39,268.434 733.057,265.601 739.5,262.5 Z"/></g>
<g><path style="opacity:1" fill="#f7f8f6" d="M 354.5,284.5 C 354.667,332.834 354.5,381.168 354,429.5C 352.872,432.207 351.372,434.707 349.5,437C 347.044,438.711 344.377,440.044 341.5,441C 319.503,441.5 297.503,441.667 275.5,441.5C 268.825,441.666 262.158,441.5 255.5,441C 250.815,439.65 247.315,436.817 245,432.5C 243.536,405.884 243.036,379.218 243.5,352.5C 243.333,329.164 243.5,305.831 244,282.5C 245.406,277.427 248.572,273.927 253.5,272C 283.833,271.333 314.167,271.333 344.5,272C 350.271,274.266 353.605,278.433 354.5,284.5 Z"/></g>
<g><path style="opacity:1" fill="#75a310" d="M 676.5,268.5 C 692.087,266.544 704.753,271.544 714.5,283.5C 714.167,283.833 713.833,284.167 713.5,284.5C 695.506,273 678.339,274 662,287.5C 657.816,293.197 655.316,299.53 654.5,306.5C 651.167,306.5 647.833,306.5 644.5,306.5C 646.164,286.175 656.83,273.508 676.5,268.5 Z"/></g>
<g><path style="opacity:1" fill="#79a81c" d="M 619.5,274.5 C 619.56,273.957 619.893,273.624 620.5,273.5C 627.695,275.615 635.029,277.115 642.5,278C 644.607,279.264 645.607,281.097 645.5,283.5C 641.869,284.412 638.203,284.579 634.5,284C 629.472,280.823 624.472,277.656 619.5,274.5 Z"/></g>
<g><path style="opacity:1" fill="#71a803" d="M 525.5,286.5 C 526.5,286.5 527.5,286.5 528.5,286.5C 537.533,286.394 546.533,286.894 555.5,288C 557.807,288.354 558.141,289.354 556.5,291C 557.885,292.597 558.551,294.43 558.5,296.5C 560.199,296.34 561.866,296.506 563.5,297C 562.833,297.667 562.167,298.333 561.5,299C 562.252,299.671 562.586,300.504 562.5,301.5C 554.19,307.468 545.857,313.468 537.5,319.5C 536.007,318.688 535.34,317.355 535.5,315.5C 536.426,313.23 536.76,311.063 536.5,309C 534.376,307.137 532.376,305.137 530.5,303C 529.5,302.333 528.5,302.333 527.5,303C 528.888,303.889 528.722,304.389 527,304.5C 526.5,304.167 526,303.833 525.5,303.5C 526.002,302.284 526.335,301.117 526.5,300C 524.315,298.527 522.649,296.527 521.5,294C 521.759,292.739 522.426,291.739 523.5,291C 521.699,290.683 521.366,290.016 522.5,289C 520.833,288.667 519.167,288.333 517.5,288C 520.365,287.817 523.031,287.317 525.5,286.5 Z"/></g>
<g><path style="opacity:1" fill="#4c7d00" d="M 528.5,286.5 C 527.5,286.5 526.5,286.5 525.5,286.5C 483.609,289.545 444.609,301.379 408.5,322C 399.333,328.5 391.5,336.333 385,345.5C 384.667,344.167 384.333,342.833 384,341.5C 381.452,344.189 378.618,346.523 375.5,348.5C 375.5,331.5 375.5,314.5 375.5,297.5C 376.468,299.607 376.802,301.941 376.5,304.5C 386.57,301.647 396.57,298.481 406.5,295C 419.321,292.459 431.988,289.959 444.5,287.5C 472.713,283.258 501.047,282.424 529.5,285C 528.944,285.383 528.611,285.883 528.5,286.5 Z"/></g>
<g><path style="opacity:1" fill="#639309" d="M 416.5,283.5 C 419.598,283.413 419.932,283.913 417.5,285C 419.725,287.442 422.558,288.608 426,288.5C 429.387,287.48 432.72,286.146 436,284.5C 438.313,286.931 441.146,287.931 444.5,287.5C 431.988,289.959 419.321,292.459 406.5,295C 396.57,298.481 386.57,301.647 376.5,304.5C 376.802,301.941 376.468,299.607 375.5,297.5C 375.5,297.167 375.5,296.833 375.5,296.5C 388.727,290.777 402.394,286.443 416.5,283.5 Z"/></g>
<g><path style="opacity:1" fill="#f5f7f3" d="M 740.5,289.5 C 747.856,297.022 755.023,304.689 762,312.5C 763.783,315.078 764.949,317.911 765.5,321C 770.235,322.068 773.402,324.901 775,329.5C 776.925,330.88 778.759,332.38 780.5,334C 788.256,337.809 795.922,341.809 803.5,346C 814.127,358.962 825.127,371.629 836.5,384C 839.407,385.609 842.073,387.442 844.5,389.5C 843.5,389.5 842.5,389.5 841.5,389.5C 832.734,384.948 824.068,380.115 815.5,375C 809.473,368.973 803.473,362.973 797.5,357C 793.833,355.167 790.167,353.333 786.5,351.5C 786.167,351.833 785.833,352.167 785.5,352.5C 788.124,355.567 789.958,358.9 791,362.5C 786.634,357.799 781.967,353.466 777,349.5C 774.015,344.689 770.515,340.356 766.5,336.5C 764.856,331.522 761.522,328.189 756.5,326.5C 755.847,325.193 755.18,323.86 754.5,322.5C 753.743,321.227 753.077,321.227 752.5,322.5C 751.833,325.167 751.167,327.833 750.5,330.5C 749.236,328.73 747.736,327.063 746,325.5C 743.427,319.703 740.927,314.036 738.5,308.5C 737.833,308.5 737.5,308.167 737.5,307.5C 739.756,301.725 740.756,295.725 740.5,289.5 Z"/></g>
<g><path style="opacity:1" fill="#6c9e05" d="M 525.5,286.5 C 523.031,287.317 520.365,287.817 517.5,288C 519.167,288.333 520.833,288.667 522.5,289C 521.366,290.016 521.699,290.683 523.5,291C 522.426,291.739 521.759,292.739 521.5,294C 522.649,296.527 524.315,298.527 526.5,300C 526.335,301.117 526.002,302.284 525.5,303.5C 526,303.833 526.5,304.167 527,304.5C 528.722,304.389 528.888,303.889 527.5,303C 528.5,302.333 529.5,302.333 530.5,303C 532.376,305.137 534.376,307.137 536.5,309C 536.76,311.063 536.426,313.23 535.5,315.5C 535.34,317.355 536.007,318.688 537.5,319.5C 534.462,322.018 531.129,324.018 527.5,325.5C 527.5,319.167 527.5,312.833 527.5,306.5C 470.649,308.113 420.315,326.78 376.5,362.5C 375.514,358.03 375.181,353.363 375.5,348.5C 378.618,346.523 381.452,344.189 384,341.5C 384.333,342.833 384.667,344.167 385,345.5C 391.5,336.333 399.333,328.5 408.5,322C 444.609,301.379 483.609,289.545 525.5,286.5 Z"/></g>
<g><path style="opacity:1" fill="#70a305" d="M 740.5,289.5 C 740.756,295.725 739.756,301.725 737.5,307.5C 734.402,309.982 733.402,312.982 734.5,316.5C 733.073,322.021 730.573,327.021 727,331.5C 726.857,335.619 726.19,339.619 725,343.5C 719.567,348.095 715.067,353.428 711.5,359.5C 710.883,357.679 710.716,355.679 711,353.5C 706.917,355.457 703.083,357.79 699.5,360.5C 699.167,360.167 698.833,359.833 698.5,359.5C 699.554,357.799 700.554,356.132 701.5,354.5C 703.227,350.98 704.06,347.313 704,343.5C 713.076,332.602 720.243,320.602 725.5,307.5C 729.525,301.815 733.525,296.149 737.5,290.5C 738.391,289.89 739.391,289.557 740.5,289.5 Z"/></g>
<g><path style="opacity:1" fill="#669512" d="M 365.5,302.5 C 361.815,301.772 359.982,299.439 360,295.5C 359.784,297.384 359.117,299.051 358,300.5C 357.828,296.129 357.328,291.796 356.5,287.5C 355.824,286.398 355.158,285.398 354.5,284.5C 353.605,278.433 350.271,274.266 344.5,272C 314.167,271.333 283.833,271.333 253.5,272C 248.572,273.927 245.406,277.427 244,282.5C 243.5,305.831 243.333,329.164 243.5,352.5C 242.686,354.631 242.186,356.964 242,359.5C 239.676,358.193 238.343,356.193 238,353.5C 237.047,355.592 235.714,355.925 234,354.5C 233.667,355.167 233.333,355.833 233,356.5C 232.5,380.831 232.333,405.164 232.5,429.5C 231.335,380.335 231.168,331.002 232,281.5C 234.224,270.943 240.391,263.776 250.5,260C 283.548,259.029 316.548,259.362 349.5,261C 357.063,264.23 362.229,269.73 365,277.5C 365.5,285.827 365.666,294.16 365.5,302.5 Z"/></g>
<g><path style="opacity:1" fill="#5b8919" d="M 278.5,282.5 C 292.842,283.647 307.175,283.814 321.5,283C 322.935,285.267 322.602,287.267 320.5,289C 306.833,289.667 293.167,289.667 279.5,289C 277.316,287.102 276.983,284.936 278.5,282.5 Z"/></g>
<g><path style="opacity:1" fill="#e4f1c3" d="M 737.5,307.5 C 737.5,308.167 737.833,308.5 738.5,308.5C 737.167,311.167 735.833,313.833 734.5,316.5C 733.402,312.982 734.402,309.982 737.5,307.5 Z"/></g>
<g><path style="opacity:1" fill="#88b526" d="M 670.5,307.5 C 675.361,307.063 680.028,307.563 684.5,309C 678.975,308.359 674.975,310.526 672.5,315.5C 666.988,315.982 661.655,317.149 656.5,319C 653.732,320.762 652.232,323.262 652,326.5C 651.333,327.833 650.667,327.833 650,326.5C 649.768,323.262 648.268,320.762 645.5,319C 652.133,313.457 659.799,311.124 668.5,312C 670.107,310.951 670.773,309.451 670.5,307.5 Z"/></g>
<g><path style="opacity:1" fill="#335f03" d="M 290.5,309.5 C 309.818,307.729 322.984,315.729 330,333.5C 330.835,339.983 330.168,346.316 328,352.5C 319.098,368.636 309.432,384.303 299,399.5C 290.667,386.5 282.333,373.5 274,360.5C 261.8,337.617 267.3,320.617 290.5,309.5 Z"/></g>
<g><path style="opacity:1" fill="#2e5803" d="M 647.5,361.5 C 643.566,361.021 639.899,361.688 636.5,363.5C 635.147,362.315 633.98,360.981 633,359.5C 631.605,360.815 630.605,360.481 630,358.5C 628.333,359.833 626.667,359.833 625,358.5C 623.601,359.227 622.101,359.727 620.5,360C 620.018,361.008 619.852,362.175 620,363.5C 618.693,365.192 617.193,366.525 615.5,367.5C 616.117,365.771 617.117,364.271 618.5,363C 614.514,362.501 610.514,362.334 606.5,362.5C 603.976,361.2 601.309,361.2 598.5,362.5C 598.624,363.107 598.957,363.44 599.5,363.5C 602.444,367.458 605.444,371.458 608.5,375.5C 609.518,374.807 610.518,374.141 611.5,373.5C 610.829,374.847 610.829,376.014 611.5,377C 610.333,377.5 609.5,378.333 609,379.5C 608.444,377.405 607.944,377.238 607.5,379C 609.347,382.024 612.013,383.524 615.5,383.5C 615.5,385.833 615.5,388.167 615.5,390.5C 618.722,390.108 621.722,390.608 624.5,392C 618.116,393.531 611.449,394.864 604.5,396C 608.833,396.333 613.167,396.667 617.5,397C 614.305,397.181 611.305,397.681 608.5,398.5C 578.077,400.309 547.744,402.976 517.5,406.5C 514.941,406.802 512.607,406.468 510.5,405.5C 525.797,402.426 540.797,398.259 555.5,393C 563.875,384.466 570.875,374.966 576.5,364.5C 577.289,364.217 577.956,363.717 578.5,363C 574.848,362.501 571.182,362.335 567.5,362.5C 565.516,362.617 563.85,361.95 562.5,360.5C 571.025,355.475 577.692,348.642 582.5,340C 579.242,339.997 576.575,338.83 574.5,336.5C 581.898,327.369 586.898,317.036 589.5,305.5C 590.086,305.709 590.586,306.043 591,306.5C 593.049,314.011 595.716,321.344 599,328.5C 600.793,331.295 602.96,333.795 605.5,336C 602.893,338.105 599.893,338.938 596.5,338.5C 598.7,344.887 602.367,350.387 607.5,355C 608.833,355.667 610.167,355.667 611.5,355C 615.412,350.923 618.745,346.423 621.5,341.5C 618.466,340.723 615.8,339.389 613.5,337.5C 616.19,335.644 618.356,333.311 620,330.5C 623.727,323.483 626.56,316.15 628.5,308.5C 630.563,315.633 633.063,322.633 636,329.5C 638.167,332.333 640.333,335.167 642.5,338C 640.063,339.375 637.397,339.875 634.5,339.5C 636.886,347.564 641.72,353.898 649,358.5C 649.725,360.157 649.225,361.157 647.5,361.5 Z"/></g>
<g><path style="opacity:1" fill="#a3c469" d="M 810.5,321.5 C 812.606,322.783 814.94,323.616 817.5,324C 815.5,324.667 813.5,324.667 811.5,324C 810.748,323.329 810.414,322.496 810.5,321.5 Z"/></g>
<g><path style="opacity:1" fill="#f5f7f4" d="M 293.5,323.5 C 303.944,321.802 311.111,325.802 315,335.5C 316.884,346.238 312.717,353.404 302.5,357C 292.523,358.261 286.023,354.095 283,344.5C 281.195,334.777 284.695,327.777 293.5,323.5 Z"/></g>
<g><path style="opacity:1" fill="#356400" d="M 734.5,316.5 C 735.958,318.932 737.125,321.599 738,324.5C 738.154,330.605 739.321,336.439 741.5,342C 738.507,348.531 739.007,354.697 743,360.5C 743.938,358.512 744.772,356.512 745.5,354.5C 746.497,354.47 747.164,354.97 747.5,356C 746.483,360.816 745.983,365.649 746,370.5C 749.75,378.005 754.916,384.339 761.5,389.5C 755.833,390.167 750.167,390.833 744.5,391.5C 742.143,391.663 739.81,391.497 737.5,391C 736.167,390.333 736.167,389.667 737.5,389C 733.257,385.314 728.757,384.147 724,385.5C 717.799,382.687 711.299,381.854 704.5,383C 700.4,384.45 696.4,385.283 692.5,385.5C 697.397,375.674 703.73,367.007 711.5,359.5C 715.067,353.428 719.567,348.095 725,343.5C 726.19,339.619 726.857,335.619 727,331.5C 730.573,327.021 733.073,322.021 734.5,316.5 Z"/></g>
<g><path style="opacity:1" fill="#93b35a" d="M 375.5,296.5 C 375.5,296.833 375.5,297.167 375.5,297.5C 375.5,314.5 375.5,331.5 375.5,348.5C 375.181,353.363 375.514,358.03 376.5,362.5C 376.44,363.043 376.107,363.376 375.5,363.5C 374.172,341.004 374.172,318.67 375.5,296.5 Z"/></g>
<g><path style="opacity:1" fill="#3a6702" d="M 734.5,289.5 C 735.391,290.11 736.391,290.443 737.5,290.5C 733.525,296.149 729.525,301.815 725.5,307.5C 718.187,314.479 710.854,321.479 703.5,328.5C 699.979,332.213 697.479,336.547 696,341.5C 689.743,347.859 683.91,354.525 678.5,361.5C 675.734,364.164 673.067,366.997 670.5,370C 666.492,373.665 662.159,376.832 657.5,379.5C 653.826,376.001 650.492,372.167 647.5,368C 649.714,365.542 652.381,363.542 655.5,362C 652.588,360.142 651.088,357.642 651,354.5C 660.455,348.712 668.288,341.212 674.5,332C 681.602,329.147 688.602,326.147 695.5,323C 705.589,308.408 718.589,297.242 734.5,289.5 Z"/></g>
<g><path style="opacity:1" fill="#d7e7af" d="M 756.5,326.5 C 761.522,328.189 764.856,331.522 766.5,336.5C 763.732,334.913 761.065,333.08 758.5,331C 756.963,329.89 756.297,328.39 756.5,326.5 Z"/></g>
<g><path style="opacity:1" fill="#75a609" d="M 738.5,308.5 C 740.927,314.036 743.427,319.703 746,325.5C 747.736,327.063 749.236,328.73 750.5,330.5C 750.783,331.289 751.283,331.956 752,332.5C 752.498,329.183 752.665,325.85 752.5,322.5C 753.077,321.227 753.743,321.227 754.5,322.5C 755.18,323.86 755.847,325.193 756.5,326.5C 756.297,328.39 756.963,329.89 758.5,331C 761.065,333.08 763.732,334.913 766.5,336.5C 770.515,340.356 774.015,344.689 777,349.5C 781.967,353.466 786.634,357.799 791,362.5C 789.958,358.9 788.124,355.567 785.5,352.5C 785.833,352.167 786.167,351.833 786.5,351.5C 790.167,353.333 793.833,355.167 797.5,357C 803.473,362.973 809.473,368.973 815.5,375C 824.068,380.115 832.734,384.948 841.5,389.5C 833.826,389.666 826.159,389.5 818.5,389C 819.167,388.667 819.833,388.333 820.5,388C 818.194,386.361 816.194,384.361 814.5,382C 809.674,379.964 805.007,377.797 800.5,375.5C 800.261,380.898 802.261,385.232 806.5,388.5C 805.333,388.833 804.167,389.167 803,389.5C 795.519,386.178 789.019,381.512 783.5,375.5C 783.586,374.504 783.252,373.671 782.5,373C 777.421,370.706 772.921,367.539 769,363.5C 767.951,364.517 766.784,364.684 765.5,364C 761.318,359.985 757.318,355.818 753.5,351.5C 752.675,350.614 751.675,350.281 750.5,350.5C 751.048,354.836 749.881,355.836 747,353.5C 746.235,353.57 745.735,353.903 745.5,354.5C 744.772,356.512 743.938,358.512 743,360.5C 739.007,354.697 738.507,348.531 741.5,342C 739.321,336.439 738.154,330.605 738,324.5C 737.125,321.599 735.958,318.932 734.5,316.5C 735.833,313.833 737.167,311.167 738.5,308.5 Z"/></g>
<g><path style="opacity:1" fill="#d0e1a7" d="M 752.5,322.5 C 752.665,325.85 752.498,329.183 752,332.5C 751.283,331.956 750.783,331.289 750.5,330.5C 751.167,327.833 751.833,325.167 752.5,322.5 Z"/></g>
<g><path style="opacity:1" fill="#366005" d="M 855.5,381.5 C 855.325,384.329 856.658,385.996 859.5,386.5C 858.098,387.842 858.431,388.676 860.5,389C 857.231,390.063 853.898,390.896 850.5,391.5C 849.14,390.82 847.807,390.153 846.5,389.5C 845.833,389.5 845.167,389.5 844.5,389.5C 842.073,387.442 839.407,385.609 836.5,384C 825.127,371.629 814.127,358.962 803.5,346C 795.922,341.809 788.256,337.809 780.5,334C 778.759,332.38 776.925,330.88 775,329.5C 773.402,324.901 770.235,322.068 765.5,321C 764.949,317.911 763.783,315.078 762,312.5C 755.023,304.689 747.856,297.022 740.5,289.5C 739.391,289.557 738.391,289.89 737.5,290.5C 736.391,290.443 735.391,290.11 734.5,289.5C 735.888,288.128 737.555,287.128 739.5,286.5C 748.797,290.634 757.463,295.801 765.5,302C 772.867,308.766 779.534,316.099 785.5,324C 796.347,329.59 807.347,334.923 818.5,340C 830.489,354.147 842.822,367.981 855.5,381.5 Z"/></g>
<g><path style="opacity:1" fill="#5b8e00" d="M 725.5,307.5 C 720.243,320.602 713.076,332.602 704,343.5C 704.06,347.313 703.227,350.98 701.5,354.5C 701.631,353.761 701.464,353.094 701,352.5C 695.733,358.441 689.399,362.775 682,365.5C 680.463,364.965 678.963,364.632 677.5,364.5C 678.127,363.583 678.461,362.583 678.5,361.5C 683.91,354.525 689.743,347.859 696,341.5C 697.479,336.547 699.979,332.213 703.5,328.5C 710.854,321.479 718.187,314.479 725.5,307.5 Z"/></g>
<g><path style="opacity:1" fill="#5a8901" d="M 243.5,352.5 C 243.036,379.218 243.536,405.884 245,432.5C 247.315,436.817 250.815,439.65 255.5,441C 262.158,441.5 268.825,441.666 275.5,441.5C 272.283,442.446 269.116,443.779 266,445.5C 263.67,443.957 261.17,443.457 258.5,444C 255.861,445.946 252.861,446.946 249.5,447C 250.609,448.813 249.942,449.646 247.5,449.5C 247.62,446.795 246.62,446.128 244.5,447.5C 243.692,447.192 243.025,446.692 242.5,446C 247.694,444.751 247.694,443.251 242.5,441.5C 241.035,442.609 240.035,442.109 239.5,440C 238.207,439.51 236.873,439.343 235.5,439.5C 233.395,436.592 232.395,433.258 232.5,429.5C 232.333,405.164 232.5,380.831 233,356.5C 233.333,355.833 233.667,355.167 234,354.5C 235.714,355.925 237.047,355.592 238,353.5C 238.343,356.193 239.676,358.193 242,359.5C 242.186,356.964 242.686,354.631 243.5,352.5 Z"/></g>
<g><path style="opacity:1" fill="#528200" d="M 701.5,354.5 C 700.554,356.132 699.554,357.799 698.5,359.5C 698.833,359.833 699.167,360.167 699.5,360.5C 703.083,357.79 706.917,355.457 711,353.5C 710.716,355.679 710.883,357.679 711.5,359.5C 703.73,367.007 697.397,375.674 692.5,385.5C 691.596,386.209 691.263,387.209 691.5,388.5C 683.082,388.198 674.748,388.531 666.5,389.5C 666.672,388.508 666.338,387.842 665.5,387.5C 662.5,385.167 659.833,382.5 657.5,379.5C 662.159,376.832 666.492,373.665 670.5,370C 673.067,366.997 675.734,364.164 678.5,361.5C 678.461,362.583 678.127,363.583 677.5,364.5C 678.963,364.632 680.463,364.965 682,365.5C 689.399,362.775 695.733,358.441 701,352.5C 701.464,353.094 701.631,353.761 701.5,354.5 Z"/></g>
<g><path style="opacity:1" fill="#9eb28d" d="M 606.5,362.5 C 603.941,362.198 601.607,362.532 599.5,363.5C 598.957,363.44 598.624,363.107 598.5,362.5C 601.309,361.2 603.976,361.2 606.5,362.5 Z"/></g>
<g><path style="opacity:1" fill="#588402" d="M 354.5,284.5 C 355.158,285.398 355.824,286.398 356.5,287.5C 357.328,291.796 357.828,296.129 358,300.5C 359.117,299.051 359.784,297.384 360,295.5C 359.982,299.439 361.815,301.772 365.5,302.5C 365.667,346.168 365.5,389.835 365,433.5C 362.167,443 356,449.167 346.5,452C 314.167,452.667 281.833,452.667 249.5,452C 243.373,449.368 238.706,445.201 235.5,439.5C 236.873,439.343 238.207,439.51 239.5,440C 240.035,442.109 241.035,442.609 242.5,441.5C 247.694,443.251 247.694,444.751 242.5,446C 243.025,446.692 243.692,447.192 244.5,447.5C 246.62,446.128 247.62,446.795 247.5,449.5C 249.942,449.646 250.609,448.813 249.5,447C 252.861,446.946 255.861,445.946 258.5,444C 261.17,443.457 263.67,443.957 266,445.5C 269.116,443.779 272.283,442.446 275.5,441.5C 297.503,441.667 319.503,441.5 341.5,441C 344.377,440.044 347.044,438.711 349.5,437C 351.372,434.707 352.872,432.207 354,429.5C 354.5,381.168 354.667,332.834 354.5,284.5 Z"/></g>
<g><path style="opacity:1" fill="#bfcfa7" d="M 567.5,362.5 C 571.182,362.335 574.848,362.501 578.5,363C 577.956,363.717 577.289,364.217 576.5,364.5C 573.5,363.833 570.5,363.167 567.5,362.5 Z"/></g>
<g><path style="opacity:1" fill="#f0f2ed" d="M 599.5,363.5 C 601.607,362.532 603.941,362.198 606.5,362.5C 610.514,362.334 614.514,362.501 618.5,363C 617.117,364.271 616.117,365.771 615.5,367.5C 613.808,369.205 612.475,371.205 611.5,373.5C 610.518,374.141 609.518,374.807 608.5,375.5C 605.444,371.458 602.444,367.458 599.5,363.5 Z"/></g>
<g><path style="opacity:1" fill="#538300" d="M 783.5,375.5 C 782.022,375.238 780.689,375.571 779.5,376.5C 780.924,378.718 782.924,380.218 785.5,381C 788.447,383.436 790.78,386.269 792.5,389.5C 782.443,390.761 772.109,390.761 761.5,389.5C 754.916,384.339 749.75,378.005 746,370.5C 745.983,365.649 746.483,360.816 747.5,356C 747.164,354.97 746.497,354.47 745.5,354.5C 745.735,353.903 746.235,353.57 747,353.5C 749.881,355.836 751.048,354.836 750.5,350.5C 751.675,350.281 752.675,350.614 753.5,351.5C 757.318,355.818 761.318,359.985 765.5,364C 766.784,364.684 767.951,364.517 769,363.5C 772.921,367.539 777.421,370.706 782.5,373C 783.252,373.671 783.586,374.504 783.5,375.5 Z"/></g>
<g><path style="opacity:1" fill="#a0c449" d="M 346.5,357.5 C 345.617,362.598 345.617,367.931 346.5,373.5C 340.808,373.904 335.142,374.571 329.5,375.5C 327.288,375.588 325.288,375.088 323.5,374C 332.721,370.604 340.388,365.104 346.5,357.5 Z"/></g>
<g><path style="opacity:1" fill="#b4d06d" d="M 250.5,356.5 C 257.531,363.185 265.198,369.185 273.5,374.5C 271.167,374.833 268.833,375.167 266.5,375.5C 261.462,374.973 256.462,374.139 251.5,373C 250.978,372.439 250.645,371.772 250.5,371C 251.5,369.333 252.5,367.667 253.5,366C 250.972,363.377 249.972,360.21 250.5,356.5 Z"/></g>
<g><path style="opacity:1" fill="#609200" d="M 783.5,375.5 C 789.019,381.512 795.519,386.178 803,389.5C 804.167,389.167 805.333,388.833 806.5,388.5C 802.261,385.232 800.261,380.898 800.5,375.5C 805.007,377.797 809.674,379.964 814.5,382C 816.194,384.361 818.194,386.361 820.5,388C 819.833,388.333 819.167,388.667 818.5,389C 826.159,389.5 833.826,389.666 841.5,389.5C 842.5,389.5 843.5,389.5 844.5,389.5C 845.167,389.5 845.833,389.5 846.5,389.5C 844.052,390.473 841.385,390.806 838.5,390.5C 822.991,390.83 807.658,390.496 792.5,389.5C 790.78,386.269 788.447,383.436 785.5,381C 782.924,380.218 780.924,378.718 779.5,376.5C 780.689,375.571 782.022,375.238 783.5,375.5 Z"/></g>
<g><path style="opacity:1" fill="#4c7c00" d="M 220.5,365.5 C 221.498,388.661 221.831,411.994 221.5,435.5C 221.209,436.649 220.376,437.316 219,437.5C 210.023,433.857 203.69,427.523 200,418.5C 197.703,411.539 198.37,404.873 202,398.5C 203.101,396.606 204.434,395.939 206,396.5C 209.938,390.227 214.271,384.227 219,378.5C 220.264,374.619 220.431,370.619 219.5,366.5C 219.5,365.833 219.833,365.5 220.5,365.5 Z"/></g>
<g><path style="opacity:1" fill="#355f05" d="M 647.5,361.5 C 644.642,362.166 641.642,362.833 638.5,363.5C 641.723,374.317 648.057,382.65 657.5,388.5C 660.287,389.477 663.287,389.81 666.5,389.5C 674.748,388.531 683.082,388.198 691.5,388.5C 691.263,387.209 691.596,386.209 692.5,385.5C 696.4,385.283 700.4,384.45 704.5,383C 711.299,381.854 717.799,382.687 724,385.5C 728.757,384.147 733.257,385.314 737.5,389C 736.167,389.667 736.167,390.333 737.5,391C 739.81,391.497 742.143,391.663 744.5,391.5C 754.848,393.074 765.181,394.74 775.5,396.5C 779.664,400.274 784.664,402.107 790.5,402C 791.364,404.071 792.697,405.738 794.5,407C 794,407.5 793.5,408 793,408.5C 791.951,407.483 790.784,407.316 789.5,408C 792.167,409.333 794.833,410.667 797.5,412C 796.906,412.464 796.239,412.631 795.5,412.5C 786.203,408.525 776.536,405.691 766.5,404C 733.045,398.784 699.379,396.618 665.5,397.5C 646.494,397.642 627.494,397.975 608.5,398.5C 611.305,397.681 614.305,397.181 617.5,397C 613.167,396.667 608.833,396.333 604.5,396C 611.449,394.864 618.116,393.531 624.5,392C 621.722,390.608 618.722,390.108 615.5,390.5C 615.5,388.167 615.5,385.833 615.5,383.5C 612.013,383.524 609.347,382.024 607.5,379C 607.944,377.238 608.444,377.405 609,379.5C 609.5,378.333 610.333,377.5 611.5,377C 610.829,376.014 610.829,374.847 611.5,373.5C 612.475,371.205 613.808,369.205 615.5,367.5C 617.193,366.525 618.693,365.192 620,363.5C 619.852,362.175 620.018,361.008 620.5,360C 622.101,359.727 623.601,359.227 625,358.5C 626.667,359.833 628.333,359.833 630,358.5C 630.605,360.481 631.605,360.815 633,359.5C 633.98,360.981 635.147,362.315 636.5,363.5C 639.899,361.688 643.566,361.021 647.5,361.5 Z"/></g>
<g><path style="opacity:1" fill="#a5ba89" d="M 665.5,387.5 C 666.338,387.842 666.672,388.508 666.5,389.5C 663.287,389.81 660.287,389.477 657.5,388.5C 660.385,388.806 663.052,388.473 665.5,387.5 Z"/></g>
<g><path style="opacity:1" fill="#467500" d="M 792.5,389.5 C 807.658,390.496 822.991,390.83 838.5,390.5C 839.263,391.268 840.263,391.768 841.5,392C 839.844,393.797 838.844,395.964 838.5,398.5C 839.169,400.858 839.336,403.525 839,406.5C 832.58,410.061 832.413,413.228 838.5,416C 837.016,417.574 835.349,418.907 833.5,420C 834.097,421.628 833.763,423.295 832.5,425C 833.167,425.333 833.833,425.667 834.5,426C 833.167,426.667 831.833,427.333 830.5,428C 831.094,428.464 831.761,428.631 832.5,428.5C 828.147,431.343 823.48,433.677 818.5,435.5C 815.471,433.474 812.138,431.807 808.5,430.5C 811.233,427.058 814.067,423.725 817,420.5C 818.036,415.768 817.203,411.434 814.5,407.5C 802.327,400.931 789.327,397.265 775.5,396.5C 765.181,394.74 754.848,393.074 744.5,391.5C 750.167,390.833 755.833,390.167 761.5,389.5C 772.109,390.761 782.443,390.761 792.5,389.5 Z"/></g>
<g><path style="opacity:1" fill="#426f03" d="M 855.5,381.5 C 859.105,383.927 862.605,386.593 866,389.5C 866.887,394.072 866.22,398.405 864,402.5C 855.765,413.901 845.265,422.568 832.5,428.5C 831.761,428.631 831.094,428.464 830.5,428C 831.833,427.333 833.167,426.667 834.5,426C 833.833,425.667 833.167,425.333 832.5,425C 833.763,423.295 834.097,421.628 833.5,420C 835.349,418.907 837.016,417.574 838.5,416C 832.413,413.228 832.58,410.061 839,406.5C 839.336,403.525 839.169,400.858 838.5,398.5C 838.844,395.964 839.844,393.797 841.5,392C 840.263,391.768 839.263,391.268 838.5,390.5C 841.385,390.806 844.052,390.473 846.5,389.5C 847.807,390.153 849.14,390.82 850.5,391.5C 853.898,390.896 857.231,390.063 860.5,389C 858.431,388.676 858.098,387.842 859.5,386.5C 856.658,385.996 855.325,384.329 855.5,381.5 Z"/></g>
<g><path style="opacity:1" fill="#507d0e" d="M 160.5,413.5 C 160.565,413.062 160.399,412.728 160,412.5C 159.444,414.595 158.944,414.762 158.5,413C 159.33,411.535 159.496,410.035 159,408.5C 155.914,410.22 153.581,409.553 152,406.5C 151.798,408.256 151.298,409.922 150.5,411.5C 149.817,411.137 149.15,410.804 148.5,410.5C 157.61,395.546 169.943,384.38 185.5,377C 174.037,387.249 165.704,399.416 160.5,413.5 Z"/></g>
<g><path style="opacity:1" fill="#699a06" d="M 219.5,366.5 C 220.431,370.619 220.264,374.619 219,378.5C 214.271,384.227 209.938,390.227 206,396.5C 204.434,395.939 203.101,396.606 202,398.5C 198.37,404.873 197.703,411.539 200,418.5C 203.69,427.523 210.023,433.857 219,437.5C 220.376,437.316 221.209,436.649 221.5,435.5C 221.833,435.5 222.167,435.5 222.5,435.5C 224.191,443.371 228.191,449.871 234.5,455C 215.512,454.011 199.679,446.511 187,432.5C 178.822,417.611 180.156,403.611 191,390.5C 199.543,381.176 209.043,373.176 219.5,366.5 Z"/></g>
<g><path style="opacity:1" fill="#85ae21" d="M 314.5,390.5 C 325.022,393.914 335.688,397.081 346.5,400C 347.61,402.737 347.777,405.571 347,408.5C 345.274,409.576 343.441,409.743 341.5,409C 331.993,403.748 322.659,398.248 313.5,392.5C 313.863,391.817 314.196,391.15 314.5,390.5 Z"/></g>
<g><path style="opacity:1" fill="#9dc13f" d="M 278.5,390.5 C 280.5,390.5 282.5,390.5 284.5,390.5C 284.5,391.5 284.5,392.5 284.5,393.5C 274.83,397.84 265.496,403.007 256.5,409C 254.655,410.128 252.655,410.628 250.5,410.5C 250.335,407.482 250.502,404.482 251,401.5C 251.5,401 252,400.5 252.5,400C 261.175,396.511 269.842,393.344 278.5,390.5 Z"/></g>
<g><path style="opacity:1" fill="#c3d2a6" d="M 220.5,365.5 C 220.56,364.957 220.893,364.624 221.5,364.5C 222.5,388.157 222.833,411.824 222.5,435.5C 222.167,435.5 221.833,435.5 221.5,435.5C 221.831,411.994 221.498,388.661 220.5,365.5 Z"/></g>
<g><path style="opacity:1" fill="#a6c292" d="M 510.5,405.5 C 512.607,406.468 514.941,406.802 517.5,406.5C 514.976,407.8 512.309,407.8 509.5,406.5C 509.624,405.893 509.957,405.56 510.5,405.5 Z"/></g>
<g><path style="opacity:1" fill="#407102" d="M 705.5,415.5 C 704.733,416.172 704.066,417.005 703.5,418C 701.423,418.192 699.423,418.692 697.5,419.5C 697.709,420.086 698.043,420.586 698.5,421C 692.897,422.922 688.231,426.255 684.5,431C 685.167,431.333 685.833,431.667 686.5,432C 678.944,430.485 669.277,430.152 657.5,431C 657.833,431.333 658.167,431.667 658.5,432C 657.333,432.5 656.5,433.333 656,434.5C 655.667,433.833 655.333,433.167 655,432.5C 650.092,435.511 645.092,435.845 640,433.5C 638.249,434.174 636.583,434.507 635,434.5C 633.921,432.606 632.587,432.273 631,433.5C 630.085,432.672 629.419,431.672 629,430.5C 626.945,430.848 624.945,430.181 623,428.5C 620.645,428.4 618.478,427.233 616.5,425C 612.549,423.781 609.049,423.614 606,424.5C 605.517,423.552 605.351,422.552 605.5,421.5C 603.856,421.714 602.356,421.38 601,420.5C 600.667,421.167 600.333,421.833 600,422.5C 599.316,421.216 599.483,420.049 600.5,419C 593.964,417.198 594.297,416.198 601.5,416C 599.527,415.505 597.527,415.338 595.5,415.5C 596.952,414.698 598.618,414.198 600.5,414C 630.475,411.203 660.475,410.87 690.5,413C 695.728,413.296 700.728,414.129 705.5,415.5 Z"/></g>
<g><path style="opacity:1" fill="#3b6a02" d="M 595.5,415.5 C 597.527,415.338 599.527,415.505 601.5,416C 594.297,416.198 593.964,417.198 600.5,419C 599.483,420.049 599.316,421.216 600,422.5C 600.333,421.833 600.667,421.167 601,420.5C 602.356,421.38 603.856,421.714 605.5,421.5C 605.351,422.552 605.517,423.552 606,424.5C 609.049,423.614 612.549,423.781 616.5,425C 618.478,427.233 620.645,428.4 623,428.5C 624.945,430.181 626.945,430.848 629,430.5C 629.419,431.672 630.085,432.672 631,433.5C 632.587,432.273 633.921,432.606 635,434.5C 636.583,434.507 638.249,434.174 640,433.5C 645.092,435.845 650.092,435.511 655,432.5C 655.333,433.167 655.667,433.833 656,434.5C 656.5,433.333 657.333,432.5 658.5,432C 658.167,431.667 657.833,431.333 657.5,431C 669.277,430.152 678.944,430.485 686.5,432C 685.833,431.667 685.167,431.333 684.5,431C 688.231,426.255 692.897,422.922 698.5,421C 698.043,420.586 697.709,420.086 697.5,419.5C 699.423,418.692 701.423,418.192 703.5,418C 704.066,417.005 704.733,416.172 705.5,415.5C 712.123,415.72 718.289,417.387 724,420.5C 724.798,422.259 724.631,423.926 723.5,425.5C 711.84,429.666 699.84,432.499 687.5,434C 666.031,435.856 644.698,438.689 623.5,442.5C 616.873,441.656 616.873,440.489 623.5,439C 619.39,438.043 615.724,436.877 612.5,435.5C 605.515,436.876 598.182,437.876 590.5,438.5C 589.633,441.227 587.799,443.227 585,444.5C 584.333,443.833 583.667,443.167 583,442.5C 579.113,443.178 575.28,444.178 571.5,445.5C 570.038,444.529 568.705,444.862 567.5,446.5C 558.056,443.589 549.056,445.089 540.5,451C 541.641,451.741 541.641,452.575 540.5,453.5C 536.878,454.325 533.211,454.825 529.5,455C 526.317,455.824 523.151,457.324 520,459.5C 509.842,459.514 500.008,459.181 490.5,458.5C 487.753,460.222 484.753,461.389 481.5,462C 481.167,462.333 480.833,462.667 480.5,463C 481.5,463.333 482.5,463.667 483.5,464C 479.163,465.339 474.83,466.839 470.5,468.5C 467.111,466.51 463.444,466.01 459.5,467C 460.5,467.333 461.5,467.667 462.5,468C 460.939,468.318 459.772,469.151 459,470.5C 457.867,468.789 456.367,468.289 454.5,469C 455.167,469.333 455.833,469.667 456.5,470C 453.949,471.548 451.282,471.548 448.5,470C 450.167,469.667 451.833,469.333 453.5,469C 450.471,468.461 447.471,467.794 444.5,467C 446.301,466.683 446.634,466.016 445.5,465C 443.167,464 440.833,463 438.5,462C 442.087,460.037 442.087,458.537 438.5,457.5C 433.618,458.215 428.785,459.215 424,460.5C 420.937,460.065 420.77,459.232 423.5,458C 422.906,457.536 422.239,457.369 421.5,457.5C 450.765,449.128 480.098,440.294 509.5,431C 537.728,423.351 566.395,418.184 595.5,415.5 Z"/></g>
<g><path style="opacity:1" fill="#8dad6a" d="M 142.5,422.5 C 142.59,425.152 141.924,427.485 140.5,429.5C 140.41,426.848 141.076,424.515 142.5,422.5 Z"/></g>
<g><path style="opacity:1" fill="#406d04" d="M 160.5,413.5 C 157.832,427.483 161.499,439.483 171.5,449.5C 169.562,450.461 168.062,449.795 167,447.5C 166.368,449.531 165.201,451.198 163.5,452.5C 161.622,452.377 159.789,452.377 158,452.5C 154.172,446.112 149.506,446.112 144,452.5C 142.893,451.288 142.393,451.621 142.5,453.5C 139.434,445.808 138.767,437.808 140.5,429.5C 141.924,427.485 142.59,425.152 142.5,422.5C 143.992,418.182 145.992,414.182 148.5,410.5C 149.15,410.804 149.817,411.137 150.5,411.5C 151.298,409.922 151.798,408.256 152,406.5C 153.581,409.553 155.914,410.22 159,408.5C 159.496,410.035 159.33,411.535 158.5,413C 158.944,414.762 159.444,414.595 160,412.5C 160.399,412.728 160.565,413.062 160.5,413.5 Z"/></g>
<g><path style="opacity:1" fill="#366400" d="M 623.5,442.5 C 606.82,446.004 590.153,449.838 573.5,454C 544.337,462.999 515.337,472.499 486.5,482.5C 485.359,481.661 484.026,480.994 482.5,480.5C 481.304,480.846 481.304,481.346 482.5,482C 477.736,484.409 473.236,485.576 469,485.5C 467.529,482.633 465.362,481.633 462.5,482.5C 459.052,480.03 456.386,480.864 454.5,485C 451.56,486.152 448.56,487.152 445.5,488C 447.167,488.333 448.833,488.667 450.5,489C 449.167,490 449.167,491 450.5,492C 448.591,492.448 447.424,491.615 447,489.5C 445.513,490.253 445.346,491.086 446.5,492C 444.5,492.667 442.5,493.333 440.5,494C 442.595,494.556 442.762,495.056 441,495.5C 437.689,493.287 434.189,491.453 430.5,490C 431.171,487.657 431.171,485.657 430.5,484C 429.226,482.779 427.726,481.946 426,481.5C 420.282,483.651 414.616,483.985 409,482.5C 406.858,484.337 404.691,484.671 402.5,483.5C 393.222,485.16 383.889,486.493 374.5,487.5C 374.5,488.5 374.5,489.5 374.5,490.5C 368.834,490.997 363.167,491.331 357.5,491.5C 351.476,496.876 344.476,499.876 336.5,500.5C 334.402,499.516 332.402,499.849 330.5,501.5C 330.431,503.278 330.097,505.111 329.5,507C 324.063,509.444 318.396,510.444 312.5,510C 310.843,507.662 308.676,506.162 306,505.5C 302.24,506.864 298.407,508.031 294.5,509C 286.096,510.454 277.929,510.954 270,510.5C 266.234,509.579 262.734,508.079 259.5,506C 256.118,505.824 252.785,505.324 249.5,504.5C 249.056,500.478 247.056,496.978 243.5,494C 238.428,493.314 233.595,492.147 229,490.5C 222.77,490.435 216.77,491.102 211,492.5C 205.534,492.01 201.367,489.51 198.5,485C 196.579,484.64 194.912,483.806 193.5,482.5C 188.335,485.661 182.668,487.327 176.5,487.5C 175.496,489.677 176.162,490.011 178.5,488.5C 179.614,489.723 179.781,491.056 179,492.5C 177.599,490.808 175.766,490.141 173.5,490.5C 158.432,482.102 148.099,469.768 142.5,453.5C 142.393,451.621 142.893,451.288 144,452.5C 149.506,446.112 154.172,446.112 158,452.5C 159.789,452.377 161.622,452.377 163.5,452.5C 165.201,451.198 166.368,449.531 167,447.5C 168.062,449.795 169.562,450.461 171.5,449.5C 176.965,454.64 182.965,458.973 189.5,462.5C 187.418,462.528 185.584,461.861 184,460.5C 183.46,462.135 183.96,463.468 185.5,464.5C 183.107,466.363 180.44,467.696 177.5,468.5C 181.522,472.8 186.189,475.134 191.5,475.5C 191.351,474.448 191.517,473.448 192,472.5C 193.667,471.5 195.333,470.5 197,469.5C 199.596,471.02 202.429,471.853 205.5,472C 203.75,473.319 201.75,473.819 199.5,473.5C 200.052,475.331 200.052,476.997 199.5,478.5C 206.477,482.979 214.143,485.812 222.5,487C 230.5,488.333 238.5,489.667 246.5,491C 272.474,492.579 298.474,492.913 324.5,492C 347.731,490.353 370.398,486.02 392.5,479C 399.363,477.283 406.363,476.283 413.5,476C 414.328,475.085 415.328,474.419 416.5,474C 416.167,473.667 415.833,473.333 415.5,473C 419.167,472.667 422.833,472.333 426.5,472C 424.647,469.96 423.314,467.627 422.5,465C 425.184,463.155 424.851,461.988 421.5,461.5C 418.689,463.173 416.356,462.673 414.5,460C 415.416,459.722 416.082,459.222 416.5,458.5C 417.919,457.549 419.585,457.216 421.5,457.5C 422.239,457.369 422.906,457.536 423.5,458C 420.77,459.232 420.937,460.065 424,460.5C 428.785,459.215 433.618,458.215 438.5,457.5C 442.087,458.537 442.087,460.037 438.5,462C 440.833,463 443.167,464 445.5,465C 446.634,466.016 446.301,466.683 444.5,467C 447.471,467.794 450.471,468.461 453.5,469C 451.833,469.333 450.167,469.667 448.5,470C 451.282,471.548 453.949,471.548 456.5,470C 455.833,469.667 455.167,469.333 454.5,469C 456.367,468.289 457.867,468.789 459,470.5C 459.772,469.151 460.939,468.318 462.5,468C 461.5,467.667 460.5,467.333 459.5,467C 463.444,466.01 467.111,466.51 470.5,468.5C 474.83,466.839 479.163,465.339 483.5,464C 482.5,463.667 481.5,463.333 480.5,463C 480.833,462.667 481.167,462.333 481.5,462C 484.753,461.389 487.753,460.222 490.5,458.5C 500.008,459.181 509.842,459.514 520,459.5C 523.151,457.324 526.317,455.824 529.5,455C 533.211,454.825 536.878,454.325 540.5,453.5C 541.641,452.575 541.641,451.741 540.5,451C 549.056,445.089 558.056,443.589 567.5,446.5C 568.705,444.862 570.038,444.529 571.5,445.5C 575.28,444.178 579.113,443.178 583,442.5C 583.667,443.167 584.333,443.833 585,444.5C 587.799,443.227 589.633,441.227 590.5,438.5C 598.182,437.876 605.515,436.876 612.5,435.5C 615.724,436.877 619.39,438.043 623.5,439C 616.873,440.489 616.873,441.656 623.5,442.5 Z"/></g>
<g><path style="opacity:1" fill="#3b6606" d="M 775.5,396.5 C 789.327,397.265 802.327,400.931 814.5,407.5C 817.203,411.434 818.036,415.768 817,420.5C 814.067,423.725 811.233,427.058 808.5,430.5C 812.138,431.807 815.471,433.474 818.5,435.5C 783.781,450.015 747.781,460.181 710.5,466C 702.171,466.857 693.838,467.191 685.5,467C 684.273,465.413 684.606,464.079 686.5,463C 690.723,461.056 695.056,459.389 699.5,458C 719.118,453.209 738.785,448.542 758.5,444C 771.077,440.854 783.077,436.187 794.5,430C 803.377,424.504 803.71,418.67 795.5,412.5C 796.239,412.631 796.906,412.464 797.5,412C 794.833,410.667 792.167,409.333 789.5,408C 790.784,407.316 791.951,407.483 793,408.5C 793.5,408 794,407.5 794.5,407C 792.697,405.738 791.364,404.071 790.5,402C 784.664,402.107 779.664,400.274 775.5,396.5 Z"/></g>
<g><path style="opacity:1" fill="#6b9c0b" d="M 889.5,408.5 C 889.766,404.395 889.266,400.395 888,396.5C 887.71,398.044 887.044,399.377 886,400.5C 885.667,399.833 885.333,399.167 885,398.5C 884.625,401 883.792,403.333 882.5,405.5C 882.931,406.293 883.265,407.127 883.5,408C 875.647,424.522 863.647,437.188 847.5,446C 810.473,465.344 771.473,479.344 730.5,488C 715.911,491.043 701.245,493.543 686.5,495.5C 689.217,492.723 692.383,492.057 696,493.5C 698.022,492.214 700.189,491.214 702.5,490.5C 705.29,487.161 704.29,485.494 699.5,485.5C 738.124,478.736 775.79,468.236 812.5,454C 829.763,447.04 845.763,438.04 860.5,427C 866.41,421.761 871.577,415.928 876,409.5C 881.914,397.841 880.414,387.341 871.5,378C 878.103,381.25 883.603,386.084 888,392.5C 890.433,397.816 890.933,403.15 889.5,408.5 Z"/></g>
<g><path style="opacity:1" fill="#6c9d16" d="M 592.5,481.5 C 592.519,479.94 592.852,478.44 593.5,477C 593.302,474.815 592.302,473.315 590.5,472.5C 592.933,471.752 595.266,470.585 597.5,469C 597.07,468.08 596.736,467.247 596.5,466.5C 594.929,467.309 593.262,467.643 591.5,467.5C 615.315,460.299 639.648,455.133 664.5,452C 646.179,456.745 628.179,462.412 610.5,469C 603.173,471.477 597.173,475.644 592.5,481.5 Z"/></g>
<g><path style="opacity:1" fill="#3e6b04" d="M 416.5,458.5 C 416.082,459.222 415.416,459.722 414.5,460C 416.356,462.673 418.689,463.173 421.5,461.5C 424.851,461.988 425.184,463.155 422.5,465C 423.314,467.627 424.647,469.96 426.5,472C 422.833,472.333 419.167,472.667 415.5,473C 415.833,473.333 416.167,473.667 416.5,474C 415.328,474.419 414.328,475.085 413.5,476C 406.363,476.283 399.363,477.283 392.5,479C 370.398,486.02 347.731,490.353 324.5,492C 298.474,492.913 272.474,492.579 246.5,491C 238.5,489.667 230.5,488.333 222.5,487C 214.143,485.812 206.477,482.979 199.5,478.5C 200.052,476.997 200.052,475.331 199.5,473.5C 201.75,473.819 203.75,473.319 205.5,472C 202.429,471.853 199.596,471.02 197,469.5C 195.333,470.5 193.667,471.5 192,472.5C 191.517,473.448 191.351,474.448 191.5,475.5C 186.189,475.134 181.522,472.8 177.5,468.5C 180.44,467.696 183.107,466.363 185.5,464.5C 183.96,463.468 183.46,462.135 184,460.5C 185.584,461.861 187.418,462.528 189.5,462.5C 205.365,468.428 221.699,472.595 238.5,475C 298.753,479.212 358.086,473.712 416.5,458.5 Z"/></g>
<g><path style="opacity:1" fill="#345e04" d="M 486.5,482.5 C 410.646,510.789 332.312,521.955 251.5,516C 227.033,513.052 203.7,506.386 181.5,496C 178.593,494.391 175.927,492.558 173.5,490.5C 175.766,490.141 177.599,490.808 179,492.5C 179.781,491.056 179.614,489.723 178.5,488.5C 176.162,490.011 175.496,489.677 176.5,487.5C 182.668,487.327 188.335,485.661 193.5,482.5C 194.912,483.806 196.579,484.64 198.5,485C 201.367,489.51 205.534,492.01 211,492.5C 216.77,491.102 222.77,490.435 229,490.5C 233.595,492.147 238.428,493.314 243.5,494C 247.056,496.978 249.056,500.478 249.5,504.5C 252.785,505.324 256.118,505.824 259.5,506C 262.734,508.079 266.234,509.579 270,510.5C 277.929,510.954 286.096,510.454 294.5,509C 298.407,508.031 302.24,506.864 306,505.5C 308.676,506.162 310.843,507.662 312.5,510C 318.396,510.444 324.063,509.444 329.5,507C 330.097,505.111 330.431,503.278 330.5,501.5C 332.402,499.849 334.402,499.516 336.5,500.5C 344.476,499.876 351.476,496.876 357.5,491.5C 363.167,491.331 368.834,490.997 374.5,490.5C 374.5,489.5 374.5,488.5 374.5,487.5C 383.889,486.493 393.222,485.16 402.5,483.5C 404.691,484.671 406.858,484.337 409,482.5C 414.616,483.985 420.282,483.651 426,481.5C 427.726,481.946 429.226,482.779 430.5,484C 431.171,485.657 431.171,487.657 430.5,490C 434.189,491.453 437.689,493.287 441,495.5C 442.762,495.056 442.595,494.556 440.5,494C 442.5,493.333 444.5,492.667 446.5,492C 445.346,491.086 445.513,490.253 447,489.5C 447.424,491.615 448.591,492.448 450.5,492C 449.167,491 449.167,490 450.5,489C 448.833,488.667 447.167,488.333 445.5,488C 448.56,487.152 451.56,486.152 454.5,485C 456.386,480.864 459.052,480.03 462.5,482.5C 465.362,481.633 467.529,482.633 469,485.5C 473.236,485.576 477.736,484.409 482.5,482C 481.304,481.346 481.304,480.846 482.5,480.5C 484.026,480.994 485.359,481.661 486.5,482.5 Z"/></g>
<g><path style="opacity:1" fill="#588605" d="M 889.5,408.5 C 888.769,414.192 886.936,419.525 884,424.5C 873.5,438.83 860.334,449.997 844.5,458C 799.325,479.502 751.991,494.169 702.5,502C 686.913,504.82 671.246,506.987 655.5,508.5C 650.269,508.444 645.269,509.111 640.5,510.5C 610.921,513.4 581.254,514.734 551.5,514.5C 547.322,513.594 542.988,512.76 538.5,512C 539.5,511.667 540.5,511.333 541.5,511C 539.556,507.735 537.556,505.235 535.5,503.5C 532.663,501.598 529.329,500.931 525.5,501.5C 525.389,500.883 525.056,500.383 524.5,500C 520.167,499.667 515.833,499.333 511.5,499C 510.057,497.933 508.724,496.766 507.5,495.5C 507.089,496.262 506.923,497.262 507,498.5C 506.184,497.177 505.017,496.511 503.5,496.5C 532.095,484.857 561.429,475.191 591.5,467.5C 593.262,467.643 594.929,467.309 596.5,466.5C 596.736,467.247 597.07,468.08 597.5,469C 595.266,470.585 592.933,471.752 590.5,472.5C 576.948,475.968 563.948,481.135 551.5,488C 548.355,489.978 545.688,492.478 543.5,495.5C 550.152,498.414 557.152,500.247 564.5,501C 605.533,504.569 646.2,502.736 686.5,495.5C 701.245,493.543 715.911,491.043 730.5,488C 771.473,479.344 810.473,465.344 847.5,446C 863.647,437.188 875.647,424.522 883.5,408C 883.265,407.127 882.931,406.293 882.5,405.5C 883.792,403.333 884.625,401 885,398.5C 885.333,399.167 885.667,399.833 886,400.5C 887.044,399.377 887.71,398.044 888,396.5C 889.266,400.395 889.766,404.395 889.5,408.5 Z"/></g>
<g><path style="opacity:1" fill="#6da002" d="M 590.5,472.5 C 592.302,473.315 593.302,474.815 593.5,477C 592.852,478.44 592.519,479.94 592.5,481.5C 592.744,485.923 595.078,488.756 599.5,490C 608.063,491.822 616.73,492.655 625.5,492.5C 650.339,491.679 675.006,489.346 699.5,485.5C 704.29,485.494 705.29,487.161 702.5,490.5C 700.189,491.214 698.022,492.214 696,493.5C 692.383,492.057 689.217,492.723 686.5,495.5C 646.2,502.736 605.533,504.569 564.5,501C 557.152,500.247 550.152,498.414 543.5,495.5C 545.688,492.478 548.355,489.978 551.5,488C 563.948,481.135 576.948,475.968 590.5,472.5 Z"/></g>
<g><path style="opacity:1" fill="#527719" d="M 525.5,501.5 C 525.167,501.5 524.833,501.5 524.5,501.5C 514.482,501.416 504.482,500.916 494.5,500C 497.279,498.278 500.279,497.111 503.5,496.5C 505.017,496.511 506.184,497.177 507,498.5C 506.923,497.262 507.089,496.262 507.5,495.5C 508.724,496.766 510.057,497.933 511.5,499C 515.833,499.333 520.167,499.667 524.5,500C 525.056,500.383 525.389,500.883 525.5,501.5 Z"/></g>
<g><path style="opacity:1" fill="#b7ce88" d="M 524.5,501.5 C 524.833,501.5 525.167,501.5 525.5,501.5C 529.329,500.931 532.663,501.598 535.5,503.5C 530.833,503.5 526.167,503.5 521.5,503.5C 522.5,502.833 523.5,502.167 524.5,501.5 Z"/></g>
<g><path style="opacity:1" fill="#528008" d="M 521.5,503.5 C 526.167,503.5 530.833,503.5 535.5,503.5C 537.556,505.235 539.556,507.735 541.5,511C 540.5,511.333 539.5,511.667 538.5,512C 542.988,512.76 547.322,513.594 551.5,514.5C 535.163,514.667 518.83,514.5 502.5,514C 492.693,513.869 483.026,512.703 473.5,510.5C 477.072,507.686 481.072,505.519 485.5,504C 497.494,504.751 509.494,504.585 521.5,503.5 Z"/></g>
<g><path style="opacity:1" fill="#c2d59c" d="M 655.5,508.5 C 650.75,510.031 645.75,510.698 640.5,510.5C 645.269,509.111 650.269,508.444 655.5,508.5 Z"/></g>
<g><path style="opacity:1" fill="#275902" d="M 790.5,569.5 C 789.732,570.263 789.232,571.263 789,572.5C 788.501,576.152 788.335,579.818 788.5,583.5C 787.178,583.33 786.011,583.663 785,584.5C 783.637,588.761 783.304,593.095 784,597.5C 785.062,599.208 786.229,599.874 787.5,599.5C 784.448,601.254 782.614,603.921 782,607.5C 781.667,606.833 781.333,606.167 781,605.5C 779.992,609.075 778.492,612.408 776.5,615.5C 775.624,616.251 774.624,616.751 773.5,617C 774.308,617.308 774.975,617.808 775.5,618.5C 771.166,620.241 766.833,620.908 762.5,620.5C 761.833,626.833 761.167,633.167 760.5,639.5C 760.829,626.323 760.495,613.323 759.5,600.5C 754.684,599.674 749.684,599.174 744.5,599C 744.167,598 743.833,597 743.5,596C 735.848,594.42 728.181,594.586 720.5,596.5C 720.291,597.086 719.957,597.586 719.5,598C 720.624,598.839 721.291,600.006 721.5,601.5C 720.918,605.155 720.418,608.822 720,612.5C 719.764,610.236 719.264,608.069 718.5,606C 719.336,604.757 719.003,603.59 717.5,602.5C 715.231,603.815 712.898,604.982 710.5,606C 711.623,607.044 712.956,607.71 714.5,608C 712.344,609.603 711.01,611.77 710.5,614.5C 708.887,615.427 707.221,616.261 705.5,617C 706.833,617.667 706.833,618.333 705.5,619C 702.607,620.149 699.607,620.649 696.5,620.5C 696.657,621.873 696.49,623.207 696,624.5C 695.819,621.305 695.319,618.305 694.5,615.5C 694.5,610.5 694.5,605.5 694.5,600.5C 689.833,600.5 685.167,600.5 680.5,600.5C 680.5,594.833 680.5,589.167 680.5,583.5C 685.167,583.5 689.833,583.5 694.5,583.5C 691.822,569.71 696.156,558.877 707.5,551C 710.928,549.06 714.594,547.894 718.5,547.5C 719.469,548.309 720.302,549.309 721,550.5C 722.667,550.167 724.333,549.833 726,549.5C 726.5,550 727,550.5 727.5,551C 725.19,551.497 722.857,551.663 720.5,551.5C 720.85,554.872 721.184,558.039 721.5,561C 717.9,563.151 717.9,565.485 721.5,568C 720.457,570.373 720.79,572.54 722.5,574.5C 722.5,577.5 722.5,580.5 722.5,583.5C 735.167,583.5 747.833,583.5 760.5,583.5C 758.363,563.252 767.03,550.419 786.5,545C 795.861,544.279 805.194,544.446 814.5,545.5C 814.5,551.5 814.5,557.5 814.5,563.5C 808.158,563.334 801.825,563.5 795.5,564C 793.285,565.379 791.619,567.213 790.5,569.5 Z"/></g>
<g><path style="opacity:1" fill="#255602" d="M 747.5,547.5 C 747.5,553.167 747.5,558.833 747.5,564.5C 742.305,564.179 737.305,564.513 732.5,565.5C 727.28,566.386 723.947,569.386 722.5,574.5C 720.79,572.54 720.457,570.373 721.5,568C 717.9,565.485 717.9,563.151 721.5,561C 721.184,558.039 720.85,554.872 720.5,551.5C 722.857,551.663 725.19,551.497 727.5,551C 727,550.5 726.5,550 726,549.5C 724.333,549.833 722.667,550.167 721,550.5C 720.302,549.309 719.469,548.309 718.5,547.5C 728.117,546.246 737.784,546.246 747.5,547.5 Z"/></g>
<g><path style="opacity:1" fill="#275902" d="M 442.5,583.5 C 449.982,584.492 457.648,584.825 465.5,584.5C 465.5,589.833 465.5,595.167 465.5,600.5C 457.648,600.175 449.982,600.508 442.5,601.5C 442.5,614.167 442.5,626.833 442.5,639.5C 441.669,626.673 441.169,613.673 441,600.5C 440.667,602.833 440.333,605.167 440,607.5C 439.784,605.616 439.117,603.949 438,602.5C 437.517,603.448 437.351,604.448 437.5,605.5C 435.5,605.5 433.5,605.5 431.5,605.5C 431.837,608.83 430.337,610.496 427,610.5C 423.838,609.51 420.671,608.344 417.5,607C 416.874,606.25 416.374,605.416 416,604.5C 415.827,610.016 415.327,615.349 414.5,620.5C 414.5,614.167 414.5,607.833 414.5,601.5C 410.366,600.515 406.032,600.182 401.5,600.5C 401.5,595.167 401.5,589.833 401.5,584.5C 406.032,584.818 410.366,584.485 414.5,583.5C 414.5,573.833 414.5,564.167 414.5,554.5C 423.768,552.733 433.102,551.4 442.5,550.5C 442.5,561.5 442.5,572.5 442.5,583.5 Z"/></g>
<g><path style="opacity:1" fill="#b8cab0" d="M 747.5,547.5 C 748.49,553.31 748.823,559.31 748.5,565.5C 743.167,565.5 737.833,565.5 732.5,565.5C 737.305,564.513 742.305,564.179 747.5,564.5C 747.5,558.833 747.5,553.167 747.5,547.5 Z"/></g>
<g><path style="opacity:1" fill="#d9e5d2" d="M 790.5,569.5 C 789.8,573.798 789.467,578.131 789.5,582.5C 798.017,582.174 806.35,582.507 814.5,583.5C 805.833,583.5 797.167,583.5 788.5,583.5C 788.335,579.818 788.501,576.152 789,572.5C 789.232,571.263 789.732,570.263 790.5,569.5 Z"/></g>
<g><path style="opacity:1" fill="#70945a" d="M 442.5,583.5 C 450.5,583.5 458.5,583.5 466.5,583.5C 466.5,589.5 466.5,595.5 466.5,601.5C 458.5,601.5 450.5,601.5 442.5,601.5C 449.982,600.508 457.648,600.175 465.5,600.5C 465.5,595.167 465.5,589.833 465.5,584.5C 457.648,584.825 449.982,584.492 442.5,583.5 Z"/></g>
<g><path style="opacity:1" fill="#275803" d="M 563.5,599.5 C 562.778,599.918 562.278,600.584 562,601.5C 560.32,600.397 558.82,600.73 557.5,602.5C 556.614,603.325 556.281,604.325 556.5,605.5C 552.24,606.924 548.074,608.591 544,610.5C 542.692,609.849 541.859,610.515 541.5,612.5C 535.12,599.561 525.12,595.728 511.5,601C 508.642,602.694 506.309,604.861 504.5,607.5C 499.71,605.032 494.71,604.866 489.5,607C 490.28,608.073 490.113,609.24 489,610.5C 487.745,611.211 486.579,612.044 485.5,613C 485.833,613.333 486.167,613.667 486.5,614C 485.284,615.74 483.618,616.74 481.5,617C 482.694,619.658 481.694,620.824 478.5,620.5C 478.762,621.978 478.429,623.311 477.5,624.5C 475.866,624.968 474.7,625.968 474,627.5C 473.79,625.942 473.29,624.609 472.5,623.5C 472.552,619.802 472.886,616.135 473.5,612.5C 478.668,596.234 489.668,586.401 506.5,583C 524.053,578.945 540.387,581.611 555.5,591C 558.371,593.703 561.038,596.536 563.5,599.5 Z"/></g>
<g><path style="opacity:1" fill="#275803" d="M 674.5,608.5 C 673.093,611.039 671.927,610.706 671,607.5C 670.667,607.833 670.333,608.167 670,608.5C 666.728,605.506 663.228,605.006 659.5,607C 660.167,607.333 660.833,607.667 661.5,608C 660.271,609.529 658.771,610.696 657,611.5C 656.383,612.449 656.549,613.282 657.5,614C 654.456,614.359 654.122,615.026 656.5,616C 655,618.167 653.167,620 651,621.5C 650.667,619.833 650.333,618.167 650,616.5C 649.826,621.351 649.326,626.018 648.5,630.5C 649.806,621.085 647.972,612.419 643,604.5C 635.332,597.942 626.832,596.776 617.5,601C 613.462,604.183 610.462,608.016 608.5,612.5C 608.631,611.761 608.464,611.094 608,610.5C 607.667,611.5 607.333,612.5 607,613.5C 605.674,609.177 603.174,608.344 599.5,611C 598.415,613.883 596.415,615.883 593.5,617C 594.458,618.147 594.125,619.147 592.5,620C 590.833,620.333 589.167,620.667 587.5,621C 587.833,621.333 588.167,621.667 588.5,622C 585.724,622.066 583.558,623.232 582,625.5C 581.25,624.874 580.416,624.374 579.5,624C 580.617,620.927 580.784,617.76 580,614.5C 579.768,615.737 579.268,616.737 578.5,617.5C 581.83,602 590.83,591.167 605.5,585C 622.919,579.496 639.919,580.496 656.5,588C 664.827,592.825 670.827,599.658 674.5,608.5 Z"/></g>
<g><path style="opacity:1" fill="#255502" d="M 395.5,645.5 C 394.671,637.677 394.171,629.677 394,621.5C 393.667,624.833 393.333,628.167 393,631.5C 392.83,629.285 392.163,627.285 391,625.5C 389.303,627.925 387.303,629.258 385,629.5C 383.933,628.809 382.766,628.309 381.5,628C 381.833,627.667 382.167,627.333 382.5,627C 378.041,626.58 374.375,624.747 371.5,621.5C 370.914,621.709 370.414,622.043 370,622.5C 369.665,618.264 368.832,614.264 367.5,610.5C 366.492,607.972 364.826,605.805 362.5,604C 349.218,599.974 340.218,604.474 335.5,617.5C 334.549,618.919 334.216,620.585 334.5,622.5C 333.67,631.324 333.17,640.324 333,649.5C 332.667,650.833 332.333,652.167 332,653.5C 330.587,651.348 329.754,649.014 329.5,646.5C 324.125,646.828 318.792,646.495 313.5,645.5C 312.42,643.004 311.086,640.67 309.5,638.5C 308.833,632.012 308.167,625.679 307.5,619.5C 307.5,607.833 307.5,596.167 307.5,584.5C 316.5,584.5 325.5,584.5 334.5,584.5C 334.334,589.179 334.501,593.845 335,598.5C 335.717,597.956 336.217,597.289 336.5,596.5C 345.047,584.591 356.714,579.757 371.5,582C 384.446,585.279 392.279,593.446 395,606.5C 395.5,619.496 395.667,632.496 395.5,645.5 Z"/></g>
<g><path style="opacity:1" fill="#275702" d="M 292.5,608.5 C 292.366,610.292 292.699,611.958 293.5,613.5C 292.9,616.625 291.733,616.958 290,614.5C 284.68,620.495 278.513,625.329 271.5,629C 270.874,629.75 270.374,630.584 270,631.5C 268.745,626.046 267.578,620.713 266.5,615.5C 260.386,599.451 249.386,594.951 233.5,602C 230.567,604.264 228.4,607.098 227,610.5C 225.623,617.076 225.123,623.743 225.5,630.5C 224.674,626.018 224.174,621.351 224,616.5C 223.667,621.5 223.333,626.5 223,631.5C 222.667,630.833 222.333,630.167 222,629.5C 221.259,630.641 220.425,630.641 219.5,629.5C 218.205,630.098 216.872,630.598 215.5,631C 216.654,631.914 216.487,632.747 215,633.5C 214.667,633.167 214.333,632.833 214,632.5C 209.329,634.075 204.496,634.742 199.5,634.5C 199.649,635.552 199.483,636.552 199,637.5C 198.302,634.996 197.469,632.663 196.5,630.5C 195.15,624.511 195.317,618.511 197,612.5C 205.904,590.446 222.404,580.113 246.5,581.5C 260.861,581.62 273.528,586.286 284.5,595.5C 287.941,599.388 290.608,603.721 292.5,608.5 Z"/></g>
<g><path style="opacity:1" fill="#6c9055" d="M 414.5,583.5 C 410.366,584.485 406.032,584.818 401.5,584.5C 401.5,589.833 401.5,595.167 401.5,600.5C 406.032,600.182 410.366,600.515 414.5,601.5C 409.833,601.5 405.167,601.5 400.5,601.5C 400.5,595.5 400.5,589.5 400.5,583.5C 405.167,583.5 409.833,583.5 414.5,583.5 Z"/></g>
<g><path style="opacity:1" fill="#9aba8b" d="M 334.5,583.5 C 335.167,587.833 335.833,592.167 336.5,596.5C 336.217,597.289 335.717,597.956 335,598.5C 334.501,593.845 334.334,589.179 334.5,584.5C 334.5,584.167 334.5,583.833 334.5,583.5 Z"/></g>
<g><path style="opacity:1" fill="#f6f7f6" d="M 266.5,615.5 C 267.438,624.267 266.104,632.6 262.5,640.5C 256.643,647.729 248.977,650.562 239.5,649C 236.941,647.223 234.274,645.723 231.5,644.5C 228.532,640.267 226.532,635.6 225.5,630.5C 225.123,623.743 225.623,617.076 227,610.5C 228.4,607.098 230.567,604.264 233.5,602C 249.386,594.951 260.386,599.451 266.5,615.5 Z"/></g>
<g><path style="opacity:1" fill="#f6f7f5" d="M 541.5,612.5 C 542.95,621.331 542.284,629.998 539.5,638.5C 537.192,642.808 533.858,646.142 529.5,648.5C 521.438,650.779 514.104,649.445 507.5,644.5C 500.713,632.702 499.713,620.369 504.5,607.5C 506.309,604.861 508.642,602.694 511.5,601C 525.12,595.728 535.12,599.561 541.5,612.5 Z"/></g>
<g><path style="opacity:1" fill="#f6f7f6" d="M 648.5,630.5 C 647.053,638.78 642.719,644.78 635.5,648.5C 630.562,649.392 625.562,649.726 620.5,649.5C 618.188,647.364 615.688,645.364 613,643.5C 607.635,633.75 606.135,623.417 608.5,612.5C 610.462,608.016 613.462,604.183 617.5,601C 626.832,596.776 635.332,597.942 643,604.5C 647.972,612.419 649.806,621.085 648.5,630.5 Z"/></g>
<g><path style="opacity:1" fill="#225201" d="M 788.5,583.5 C 797.167,583.5 805.833,583.5 814.5,583.5C 814.5,589.167 814.5,594.833 814.5,600.5C 805.833,600.5 797.167,600.5 788.5,600.5C 788.5,605.167 788.5,609.833 788.5,614.5C 787.967,620.662 786.467,626.662 784,632.5C 781.226,635.26 778.892,638.26 777,641.5C 773.97,641.382 770.803,641.215 767.5,641C 766.007,639.632 764.507,639.465 763,640.5C 762.5,633.842 762.334,627.175 762.5,620.5C 766.833,620.908 771.166,620.241 775.5,618.5C 774.975,617.808 774.308,617.308 773.5,617C 774.624,616.751 775.624,616.251 776.5,615.5C 778.492,612.408 779.992,609.075 781,605.5C 781.333,606.167 781.667,606.833 782,607.5C 782.614,603.921 784.448,601.254 787.5,599.5C 786.229,599.874 785.062,599.208 784,597.5C 783.304,593.095 783.637,588.761 785,584.5C 786.011,583.663 787.178,583.33 788.5,583.5 Z"/></g>
<g><path style="opacity:1" fill="#235304" d="M 563.5,599.5 C 569.124,606.373 571.791,614.373 571.5,623.5C 570.686,621.369 570.186,619.036 570,616.5C 569.626,627.048 568.626,627.048 567,616.5C 565.111,619.689 562.278,621.189 558.5,621C 558.833,621.333 559.167,621.667 559.5,622C 555.195,623.988 550.862,625.821 546.5,627.5C 545.914,627.291 545.414,626.957 545,626.5C 543.805,629.187 543.638,631.854 544.5,634.5C 543.833,634.833 543.167,635.167 542.5,635.5C 543.462,637.883 542.462,638.883 539.5,638.5C 542.284,629.998 542.95,621.331 541.5,612.5C 541.859,610.515 542.692,609.849 544,610.5C 548.074,608.591 552.24,606.924 556.5,605.5C 556.281,604.325 556.614,603.325 557.5,602.5C 558.82,600.73 560.32,600.397 562,601.5C 562.278,600.584 562.778,599.918 563.5,599.5 Z"/></g>
<g><path style="opacity:1" fill="#1f5001" d="M 759.5,600.5 C 746.989,600.171 734.655,600.505 722.5,601.5C 722.5,622.833 722.5,644.167 722.5,665.5C 713.167,665.5 703.833,665.5 694.5,665.5C 694.5,665.167 694.5,664.833 694.5,664.5C 703.5,664.5 712.5,664.5 721.5,664.5C 721.667,650.496 721.5,636.496 721,622.5C 720.667,625.5 720.333,628.5 720,631.5C 719.667,629.5 719.333,627.5 719,625.5C 717.649,627.019 716.149,628.352 714.5,629.5C 714.167,630.833 713.833,632.167 713.5,633.5C 711.5,634.167 709.5,634.833 707.5,635.5C 706.109,637.89 704.109,639.557 701.5,640.5C 698.871,639.787 696.537,639.787 694.5,640.5C 694.5,632.167 694.5,623.833 694.5,615.5C 695.319,618.305 695.819,621.305 696,624.5C 696.49,623.207 696.657,621.873 696.5,620.5C 699.607,620.649 702.607,620.149 705.5,619C 706.833,618.333 706.833,617.667 705.5,617C 707.221,616.261 708.887,615.427 710.5,614.5C 711.01,611.77 712.344,609.603 714.5,608C 712.956,607.71 711.623,607.044 710.5,606C 712.898,604.982 715.231,603.815 717.5,602.5C 719.003,603.59 719.336,604.757 718.5,606C 719.264,608.069 719.764,610.236 720,612.5C 720.418,608.822 720.918,605.155 721.5,601.5C 721.291,600.006 720.624,598.839 719.5,598C 719.957,597.586 720.291,597.086 720.5,596.5C 728.181,594.586 735.848,594.42 743.5,596C 743.833,597 744.167,598 744.5,599C 749.684,599.174 754.684,599.674 759.5,600.5 Z"/></g>
<g><path style="opacity:1" fill="#6d8d51" d="M 292.5,608.5 C 293.924,610.515 294.59,612.848 294.5,615.5C 293.662,615.158 293.328,614.492 293.5,613.5C 292.699,611.958 292.366,610.292 292.5,608.5 Z"/></g>
<g><path style="opacity:1" fill="#1e4a02" d="M 367.5,610.5 C 368.832,614.264 369.665,618.264 370,622.5C 370.414,622.043 370.914,621.709 371.5,621.5C 374.375,624.747 378.041,626.58 382.5,627C 382.167,627.333 381.833,627.667 381.5,628C 382.766,628.309 383.933,628.809 385,629.5C 387.303,629.258 389.303,627.925 391,625.5C 392.163,627.285 392.83,629.285 393,631.5C 393.333,628.167 393.667,624.833 394,621.5C 394.171,629.677 394.671,637.677 395.5,645.5C 395.762,653.37 399.095,659.37 405.5,663.5C 405.611,664.117 405.944,664.617 406.5,665C 403.305,665.181 400.305,665.681 397.5,666.5C 387.192,669.382 378.358,667.049 371,659.5C 369.253,656.79 368.253,653.79 368,650.5C 367.5,637.171 367.333,623.837 367.5,610.5 Z"/></g>
<g><path style="opacity:1" fill="#1e4b01" d="M 571.5,623.5 C 571.354,637.984 565.687,649.651 554.5,658.5C 552.724,658.206 550.724,658.04 548.5,658C 549.833,657.333 551.167,656.667 552.5,656C 550.884,655.385 549.551,654.385 548.5,653C 542.104,652.372 535.77,651.372 529.5,650C 532.097,649.221 532.097,648.721 529.5,648.5C 533.858,646.142 537.192,642.808 539.5,638.5C 542.462,638.883 543.462,637.883 542.5,635.5C 543.167,635.167 543.833,634.833 544.5,634.5C 543.638,631.854 543.805,629.187 545,626.5C 545.414,626.957 545.914,627.291 546.5,627.5C 550.862,625.821 555.195,623.988 559.5,622C 559.167,621.667 558.833,621.333 558.5,621C 562.278,621.189 565.111,619.689 567,616.5C 568.626,627.048 569.626,627.048 570,616.5C 570.186,619.036 570.686,621.369 571.5,623.5 Z"/></g>
<g><path style="opacity:1" fill="#1f4d01" d="M 674.5,608.5 C 676.956,612.738 677.956,617.404 677.5,622.5C 676.778,622.918 676.278,623.584 676,624.5C 675.667,627.5 675.333,630.5 675,633.5C 674.667,633.167 674.333,632.833 674,632.5C 670.461,637.052 665.961,640.552 660.5,643C 660.833,643.333 661.167,643.667 661.5,644C 657.55,647.43 653.717,650.93 650,654.5C 648.992,654.018 647.825,653.852 646.5,654C 645.874,653.25 645.374,652.416 645,651.5C 644.667,651.833 644.333,652.167 644,652.5C 642.333,647.167 640.667,647.167 639,652.5C 638.5,651.333 637.667,650.5 636.5,650C 637.712,648.893 637.379,648.393 635.5,648.5C 642.719,644.78 647.053,638.78 648.5,630.5C 649.326,626.018 649.826,621.351 650,616.5C 650.333,618.167 650.667,619.833 651,621.5C 653.167,620 655,618.167 656.5,616C 654.122,615.026 654.456,614.359 657.5,614C 656.549,613.282 656.383,612.449 657,611.5C 658.771,610.696 660.271,609.529 661.5,608C 660.833,607.667 660.167,607.333 659.5,607C 663.228,605.006 666.728,605.506 670,608.5C 670.333,608.167 670.667,607.833 671,607.5C 671.927,610.706 673.093,611.039 674.5,608.5 Z"/></g>
<g><path style="opacity:1" fill="#a5be90" d="M 473.5,612.5 C 472.886,616.135 472.552,619.802 472.5,623.5C 472.5,626.5 472.5,629.5 472.5,632.5C 471.836,629.854 471.502,627.021 471.5,624C 471.286,619.867 471.952,616.034 473.5,612.5 Z"/></g>
<g><path style="opacity:1" fill="#1d4b02" d="M 293.5,613.5 C 293.328,614.492 293.662,615.158 294.5,615.5C 297.617,644.735 284.617,661.901 255.5,667C 247.988,667.822 240.655,667.655 233.5,666.5C 240.508,666.666 247.508,666.5 254.5,666C 248.5,665.667 242.5,665.333 236.5,665C 241.418,664.805 246.251,664.305 251,663.5C 252.268,663.616 253.602,663.949 255,664.5C 256.734,663.751 258.567,663.251 260.5,663C 261.191,661.933 261.691,660.766 262,659.5C 262.333,659.833 262.667,660.167 263,660.5C 262.734,657.099 264.234,655.433 267.5,655.5C 267.759,652.52 266.426,650.687 263.5,650C 264.5,649.667 265.5,649.333 266.5,649C 263.978,648.39 261.978,647.057 260.5,645C 262.037,643.89 262.703,642.39 262.5,640.5C 266.104,632.6 267.438,624.267 266.5,615.5C 267.578,620.713 268.745,626.046 270,631.5C 270.374,630.584 270.874,629.75 271.5,629C 278.513,625.329 284.68,620.495 290,614.5C 291.733,616.958 292.9,616.625 293.5,613.5 Z"/></g>
<g><path style="opacity:1" fill="#1c4c01" d="M 442.5,639.5 C 444.635,646.189 449.301,648.689 456.5,647C 458.871,646.265 461.205,645.432 463.5,644.5C 464.833,650.833 464.833,657.167 463.5,663.5C 425.29,674.639 408.956,660.306 414.5,620.5C 415.327,615.349 415.827,610.016 416,604.5C 416.374,605.416 416.874,606.25 417.5,607C 420.671,608.344 423.838,609.51 427,610.5C 430.337,610.496 431.837,608.83 431.5,605.5C 433.5,605.5 435.5,605.5 437.5,605.5C 437.351,604.448 437.517,603.448 438,602.5C 439.117,603.949 439.784,605.616 440,607.5C 440.333,605.167 440.667,602.833 441,600.5C 441.169,613.673 441.669,626.673 442.5,639.5 Z"/></g>
<g><path style="opacity:1" fill="#1d4d01" d="M 504.5,607.5 C 499.713,620.369 500.713,632.702 507.5,644.5C 507.577,645.75 508.244,646.583 509.5,647C 506.472,648.14 504.305,647.306 503,644.5C 501.638,646.436 499.805,647.769 497.5,648.5C 498.04,649.748 498.707,650.915 499.5,652C 497.668,652.748 496.001,653.748 494.5,655C 495.167,655.333 495.833,655.667 496.5,656C 495.382,657.074 494.382,658.24 493.5,659.5C 487.908,656.742 483.408,652.742 480,647.5C 479.601,647.728 479.435,648.062 479.5,648.5C 476.002,643.67 473.668,638.337 472.5,632.5C 472.5,629.5 472.5,626.5 472.5,623.5C 473.29,624.609 473.79,625.942 474,627.5C 474.7,625.968 475.866,624.968 477.5,624.5C 478.429,623.311 478.762,621.978 478.5,620.5C 481.694,620.824 482.694,619.658 481.5,617C 483.618,616.74 485.284,615.74 486.5,614C 486.167,613.667 485.833,613.333 485.5,613C 486.579,612.044 487.745,611.211 489,610.5C 490.113,609.24 490.28,608.073 489.5,607C 494.71,604.866 499.71,605.032 504.5,607.5 Z"/></g>
<g><path style="opacity:1" fill="#1f4d01" d="M 608.5,612.5 C 606.135,623.417 607.635,633.75 613,643.5C 615.688,645.364 618.188,647.364 620.5,649.5C 621.718,650.161 623.051,650.828 624.5,651.5C 623.333,651.833 622.167,652.167 621,652.5C 617.667,651.167 614.333,649.833 611,648.5C 608.895,648.789 607.062,649.622 605.5,651C 605.833,651.333 606.167,651.667 606.5,652C 603.167,652.667 599.833,652.667 596.5,652C 595.437,650.812 594.103,650.312 592.5,650.5C 592.826,652.661 593.826,654.494 595.5,656C 594.258,656.311 593.258,655.811 592.5,654.5C 591.893,654.624 591.56,654.957 591.5,655.5C 584.513,649.87 580.347,642.537 579,633.5C 578.501,628.177 578.334,622.844 578.5,617.5C 579.268,616.737 579.768,615.737 580,614.5C 580.784,617.76 580.617,620.927 579.5,624C 580.416,624.374 581.25,624.874 582,625.5C 583.558,623.232 585.724,622.066 588.5,622C 588.167,621.667 587.833,621.333 587.5,621C 589.167,620.667 590.833,620.333 592.5,620C 594.125,619.147 594.458,618.147 593.5,617C 596.415,615.883 598.415,613.883 599.5,611C 603.174,608.344 605.674,609.177 607,613.5C 607.333,612.5 607.667,611.5 608,610.5C 608.464,611.094 608.631,611.761 608.5,612.5 Z"/></g>
<g><path style="opacity:1" fill="#1a4a01" d="M 788.5,614.5 C 788.5,627.167 788.5,639.833 788.5,652.5C 785.679,663.926 778.346,668.26 766.5,665.5C 762.167,665.333 757.833,665.167 753.5,665C 756.728,661.044 758.728,656.544 759.5,651.5C 760.483,647.702 760.817,643.702 760.5,639.5C 761.167,633.167 761.833,626.833 762.5,620.5C 762.334,627.175 762.5,633.842 763,640.5C 764.507,639.465 766.007,639.632 767.5,641C 770.803,641.215 773.97,641.382 777,641.5C 778.892,638.26 781.226,635.26 784,632.5C 786.467,626.662 787.967,620.662 788.5,614.5 Z"/></g>
<g><path style="opacity:1" fill="#194900" d="M 694.5,664.5 C 694.5,656.5 694.5,648.5 694.5,640.5C 696.537,639.787 698.871,639.787 701.5,640.5C 704.109,639.557 706.109,637.89 707.5,635.5C 709.5,634.833 711.5,634.167 713.5,633.5C 713.833,632.167 714.167,630.833 714.5,629.5C 716.149,628.352 717.649,627.019 719,625.5C 719.333,627.5 719.667,629.5 720,631.5C 720.333,628.5 720.667,625.5 721,622.5C 721.5,636.496 721.667,650.496 721.5,664.5C 712.5,664.5 703.5,664.5 694.5,664.5 Z"/></g>
<g><path style="opacity:1" fill="#b3cba5" d="M 722.5,601.5 C 734.655,600.505 746.989,600.171 759.5,600.5C 760.495,613.323 760.829,626.323 760.5,639.5C 760.817,643.702 760.483,647.702 759.5,651.5C 759.5,634.833 759.5,618.167 759.5,601.5C 747.167,601.5 734.833,601.5 722.5,601.5 Z"/></g>
<g><path style="opacity:1" fill="#1b4603" d="M 677.5,622.5 C 678.046,641.459 669.713,654.959 652.5,663C 634.701,669.244 617.035,668.911 599.5,662C 596.58,660.054 593.913,657.887 591.5,655.5C 591.56,654.957 591.893,654.624 592.5,654.5C 593.258,655.811 594.258,656.311 595.5,656C 593.826,654.494 592.826,652.661 592.5,650.5C 594.103,650.312 595.437,650.812 596.5,652C 599.833,652.667 603.167,652.667 606.5,652C 606.167,651.667 605.833,651.333 605.5,651C 607.062,649.622 608.895,648.789 611,648.5C 614.333,649.833 617.667,651.167 621,652.5C 622.167,652.167 623.333,651.833 624.5,651.5C 623.051,650.828 621.718,650.161 620.5,649.5C 625.562,649.726 630.562,649.392 635.5,648.5C 637.379,648.393 637.712,648.893 636.5,650C 637.667,650.5 638.5,651.333 639,652.5C 640.667,647.167 642.333,647.167 644,652.5C 644.333,652.167 644.667,651.833 645,651.5C 645.374,652.416 645.874,653.25 646.5,654C 647.825,653.852 648.992,654.018 650,654.5C 653.717,650.93 657.55,647.43 661.5,644C 661.167,643.667 660.833,643.333 660.5,643C 665.961,640.552 670.461,637.052 674,632.5C 674.333,632.833 674.667,633.167 675,633.5C 675.333,630.5 675.667,627.5 676,624.5C 676.278,623.584 676.778,622.918 677.5,622.5 Z"/></g>
<g><path style="opacity:1" fill="#81a06e" d="M 680.5,600.5 C 685.167,600.5 689.833,600.5 694.5,600.5C 694.5,605.5 694.5,610.5 694.5,615.5C 694.5,623.833 694.5,632.167 694.5,640.5C 694.5,648.5 694.5,656.5 694.5,664.5C 694.5,664.833 694.5,665.167 694.5,665.5C 693.503,644.34 693.169,623.007 693.5,601.5C 688.968,601.818 684.634,601.485 680.5,600.5 Z"/></g>
<g><path style="opacity:1" fill="#1c4b02" d="M 225.5,630.5 C 226.532,635.6 228.532,640.267 231.5,644.5C 231.577,645.75 232.244,646.583 233.5,647C 232.747,648.487 231.914,648.654 231,647.5C 230.676,649.569 229.842,649.902 228.5,648.5C 227.139,650.028 225.972,651.695 225,653.5C 224.667,653.167 224.333,652.833 224,652.5C 222.667,653.833 221.333,655.167 220,656.5C 219.316,657.784 219.483,658.951 220.5,660C 219.584,660.278 218.918,660.778 218.5,661.5C 205.697,655.033 198.364,644.7 196.5,630.5C 197.469,632.663 198.302,634.996 199,637.5C 199.483,636.552 199.649,635.552 199.5,634.5C 204.496,634.742 209.329,634.075 214,632.5C 214.333,632.833 214.667,633.167 215,633.5C 216.487,632.747 216.654,631.914 215.5,631C 216.872,630.598 218.205,630.098 219.5,629.5C 220.425,630.641 221.259,630.641 222,629.5C 222.333,630.167 222.667,630.833 223,631.5C 223.333,626.5 223.667,621.5 224,616.5C 224.174,621.351 224.674,626.018 225.5,630.5 Z"/></g>
<g><path style="opacity:1" fill="#5c7e41" d="M 334.5,583.5 C 334.5,583.833 334.5,584.167 334.5,584.5C 325.5,584.5 316.5,584.5 307.5,584.5C 307.5,596.167 307.5,607.833 307.5,619.5C 307.5,634.833 307.5,650.167 307.5,665.5C 307.167,665.5 306.833,665.5 306.5,665.5C 306.5,638.167 306.5,610.833 306.5,583.5C 315.833,583.5 325.167,583.5 334.5,583.5 Z"/></g>
<g><path style="opacity:1" fill="#bccdb5" d="M 814.5,600.5 C 806.35,601.493 798.017,601.826 789.5,601.5C 789.83,618.675 789.497,635.675 788.5,652.5C 788.5,639.833 788.5,627.167 788.5,614.5C 788.5,609.833 788.5,605.167 788.5,600.5C 797.167,600.5 805.833,600.5 814.5,600.5 Z"/></g>
<g><path style="opacity:1" fill="#1c4900" d="M 307.5,619.5 C 308.167,625.679 308.833,632.012 309.5,638.5C 311.086,640.67 312.42,643.004 313.5,645.5C 318.792,646.495 324.125,646.828 329.5,646.5C 329.754,649.014 330.587,651.348 332,653.5C 332.333,652.167 332.667,650.833 333,649.5C 333.17,640.324 333.67,631.324 334.5,622.5C 334.5,636.833 334.5,651.167 334.5,665.5C 325.5,665.5 316.5,665.5 307.5,665.5C 307.5,650.167 307.5,634.833 307.5,619.5 Z"/></g>
<g><path style="opacity:1" fill="#1b4603" d="M 507.5,644.5 C 514.104,649.445 521.438,650.779 529.5,648.5C 532.097,648.721 532.097,649.221 529.5,650C 535.77,651.372 542.104,652.372 548.5,653C 549.551,654.385 550.884,655.385 552.5,656C 551.167,656.667 549.833,657.333 548.5,658C 550.724,658.04 552.724,658.206 554.5,658.5C 548.56,662.767 541.893,665.6 534.5,667C 525.833,667.667 517.167,667.667 508.5,667C 496.175,664.846 486.508,658.68 479.5,648.5C 479.435,648.062 479.601,647.728 480,647.5C 483.408,652.742 487.908,656.742 493.5,659.5C 494.382,658.24 495.382,657.074 496.5,656C 495.833,655.667 495.167,655.333 494.5,655C 496.001,653.748 497.668,652.748 499.5,652C 498.707,650.915 498.04,649.748 497.5,648.5C 499.805,647.769 501.638,646.436 503,644.5C 504.305,647.306 506.472,648.14 509.5,647C 508.244,646.583 507.577,645.75 507.5,644.5 Z"/></g>
<g><path style="opacity:1" fill="#1b4603" d="M 262.5,640.5 C 262.703,642.39 262.037,643.89 260.5,645C 261.978,647.057 263.978,648.39 266.5,649C 265.5,649.333 264.5,649.667 263.5,650C 266.426,650.687 267.759,652.52 267.5,655.5C 264.234,655.433 262.734,657.099 263,660.5C 262.667,660.167 262.333,659.833 262,659.5C 261.691,660.766 261.191,661.933 260.5,663C 258.567,663.251 256.734,663.751 255,664.5C 253.602,663.949 252.268,663.616 251,663.5C 246.251,664.305 241.418,664.805 236.5,665C 242.5,665.333 248.5,665.667 254.5,666C 247.508,666.5 240.508,666.666 233.5,666.5C 227.948,666.202 222.948,664.536 218.5,661.5C 218.918,660.778 219.584,660.278 220.5,660C 219.483,658.951 219.316,657.784 220,656.5C 221.333,655.167 222.667,653.833 224,652.5C 224.333,652.833 224.667,653.167 225,653.5C 225.972,651.695 227.139,650.028 228.5,648.5C 229.842,649.902 230.676,649.569 231,647.5C 231.914,648.654 232.747,648.487 233.5,647C 232.244,646.583 231.577,645.75 231.5,644.5C 234.274,645.723 236.941,647.223 239.5,649C 248.977,650.562 256.643,647.729 262.5,640.5 Z"/></g>
<g><path style="opacity:1" fill="#abc3a2" d="M 335.5,617.5 C 335.5,633.833 335.5,650.167 335.5,666.5C 325.652,666.827 315.986,666.494 306.5,665.5C 306.833,665.5 307.167,665.5 307.5,665.5C 316.5,665.5 325.5,665.5 334.5,665.5C 334.5,651.167 334.5,636.833 334.5,622.5C 334.216,620.585 334.549,618.919 335.5,617.5 Z"/></g>
<g><path style="opacity:1" fill="#a8bea0" d="M 405.5,663.5 C 407.048,663.821 407.715,664.821 407.5,666.5C 404.167,666.5 400.833,666.5 397.5,666.5C 400.305,665.681 403.305,665.181 406.5,665C 405.944,664.617 405.611,664.117 405.5,663.5 Z"/></g>
</svg>
